<svg width="38" height="36" viewBox="0 0 38 36" fill="none" xmlns="http://www.w3.org/2000/svg">
<g filter="url(#filter0_d_3_1012)">
<path d="M19 0.5C27.0412 0.5 33.5 6.57609 33.5 14C33.5 21.4239 27.0412 27.5 19 27.5C10.9588 27.5 4.5 21.4239 4.5 14C4.5 6.57609 10.9588 0.5 19 0.5Z" fill="white" stroke="#FF3499"/>
<path d="M28.2178 13.5L25.6797 19H12.7988L9.83789 13.5H28.2178Z" fill="white" stroke="#FF3499"/>
<line x1="15.5" y1="14" x2="15.5" y2="19" stroke="#FF3499"/>
<line x1="19.5" y1="14" x2="19.5" y2="19" stroke="#FF3499"/>
<line x1="23.5" y1="14" x2="23.5" y2="19" stroke="#FF3499"/>
<mask id="path-6-inside-1_3_1012" fill="white">
<path d="M25.7869 14C25.5 10.6463 20.7881 6.04682 17.5 8.5C14.871 10.0271 13 16.0275 13 13.0049C13.7307 10.0197 16.3096 7 19.9414 7C23.5733 7 28.5 12.5 25.7869 14Z"/>
</mask>
<path d="M25.7869 14L19.8087 14.5114L20.5968 23.7253L28.6899 19.2509L25.7869 14ZM17.5 8.5L20.5137 13.6882L20.8117 13.5151L21.088 13.309L17.5 8.5ZM13 13.0049L7.17204 11.5784L7 12.2813V13.0049H13ZM25.7869 14L31.765 13.4886C31.4406 9.69529 28.993 6.31011 26.4501 4.33439C23.9191 2.36798 18.7509 0.0807543 13.912 3.69099L17.5 8.5L21.088 13.309C20.8463 13.4893 20.5198 13.6526 20.1373 13.7408C19.765 13.8267 19.4498 13.8167 19.2367 13.7842C18.8638 13.7273 18.837 13.6157 19.0877 13.8104C19.3129 13.9854 19.5558 14.2537 19.7273 14.5317C19.807 14.6608 19.843 14.7466 19.8528 14.7733C19.8647 14.8055 19.8262 14.7164 19.8087 14.5114L25.7869 14ZM17.5 8.5L14.4863 3.31179C12.7675 4.31017 11.5725 5.75609 10.8801 6.68348C10.1304 7.68756 9.4989 8.74539 9.13386 9.3473C8.91694 9.70498 8.81653 9.86628 8.7578 9.95328C8.54938 10.262 8.92747 9.59158 9.74793 8.9801C10.1086 8.71129 11.777 7.51317 14.2027 7.92853C16.9728 8.40289 18.1853 10.472 18.5352 11.2315C18.8975 12.0181 18.9678 12.6598 18.9804 12.7669C19.0035 12.9629 19 13.0634 19 13.0049H13H7C7 13.3242 7.01111 13.7321 7.0629 14.1715C7.10422 14.5221 7.21729 15.3433 7.6359 16.2521C8.04203 17.1338 9.32435 19.2678 12.1773 19.7564C14.6858 20.1859 16.45 18.9513 16.9189 18.6018C17.9559 17.8289 18.6002 16.8206 18.7035 16.6677C18.9564 16.293 19.2132 15.8688 19.3944 15.5699C19.8258 14.8586 20.155 14.3189 20.4955 13.8629C20.8932 13.3302 20.918 13.4534 20.5137 13.6882L17.5 8.5ZM13 13.0049L18.828 14.4314C18.9342 13.9975 19.2005 13.5314 19.5105 13.2375C19.7681 12.9934 19.8951 13 19.9414 13V7V1C12.6543 1 8.32126 6.88324 7.17204 11.5784L13 13.0049ZM19.9414 7V13C19.4283 13 19.3661 12.8458 19.7602 13.0741C20.0936 13.2674 20.4497 13.5657 20.6984 13.8544C21.0352 14.2451 20.7719 14.1227 20.6329 13.3859C20.5495 12.9442 20.4806 12.0683 20.8945 11.0358C21.3426 9.91816 22.14 9.16029 22.8838 8.74907L25.7869 14L28.6899 19.2509C30.112 18.4647 31.3489 17.2068 32.0327 15.5013C32.6824 13.8809 32.6453 12.3293 32.4248 11.161C32.0116 8.97102 30.7984 7.19238 29.7887 6.02065C28.6909 4.74675 27.3039 3.57638 25.7769 2.6915C24.3105 1.84173 22.2706 1 19.9414 1V7Z" fill="#FF3499" mask="url(#path-6-inside-1_3_1012)"/>
</g>
<defs>
<filter id="filter0_d_3_1012" x="0" y="0" width="38" height="36" filterUnits="userSpaceOnUse" color-interpolation-filters="sRGB">
<feFlood flood-opacity="0" result="BackgroundImageFix"/>
<feColorMatrix in="SourceAlpha" type="matrix" values="0 0 0 0 0 0 0 0 0 0 0 0 0 0 0 0 0 0 127 0" result="hardAlpha"/>
<feOffset dy="4"/>
<feGaussianBlur stdDeviation="2"/>
<feComposite in2="hardAlpha" operator="out"/>
<feColorMatrix type="matrix" values="0 0 0 0 0 0 0 0 0 0 0 0 0 0 0 0 0 0 0.25 0"/>
<feBlend mode="normal" in2="BackgroundImageFix" result="effect1_dropShadow_3_1012"/>
<feBlend mode="normal" in="SourceGraphic" in2="effect1_dropShadow_3_1012" result="shape"/>
</filter>
</defs>
</svg>
